<?xml version="1.0" encoding="UTF-8"?>
<?xml-stylesheet href="/assets/css/style.css" type="text/css"?>
<svg id="Calque_2" data-name="Calque 2" xmlns="http://www.w3.org/2000/svg" viewBox="0 0 708.66 708.66">
  <g id="Calque_1-2" data-name="Calque 1">
    <g>
      <path class="cls-1" d="M129.85,0c90.47,0,180.94,0,271.41,0,2.04.95,3.98,2.35,6.13,2.78,75.39,14.83,123.23,72.6,123.42,149.5.16,65.56.14,131.12,0,196.68-.18,89.25-63.34,152.13-152.86,152.28-49.84.08-99.69-.28-149.52.33-7.71.09-16.39,2.76-22.88,6.94-36.07,23.22-71.21,47.88-107.41,70.88-43.36,27.54-97.35-.83-97.6-51.74C-.1,399.29-.3,270.93.7,142.59,1.19,80.29,45.3,24.7,104.82,6.83c8.28-2.49,16.68-4.56,25.02-6.83Z"/>
      <path class="cls-1" d="M708.66,656.63c-.61.68-1.49,1.26-1.79,2.05-19.43,51.43-59.07,64.15-105.06,33.58-32.66-21.71-65.03-43.84-98.01-65.04-6.5-4.18-15.16-6.9-22.87-6.99-51.23-.61-102.46-.21-153.7-.36-36.38-.1-68.74-11.66-96.83-34.95-4.2-3.48-8.6-6.72-12.91-10.06.4-1.8.79-3.59,1.19-5.39,8.78-2.38,17.53-6.67,26.34-6.8,44.76-.7,89.54-.25,134.31-.34,107.09-.23,192.12-72.2,209.57-177.91,2.16-13.11,1.9-26.69,1.93-40.06.17-73.38.08-146.77.08-222.03,5.67,1.47,11.32,2.44,16.61,4.38,53.78,19.69,86.52,57.58,98.04,113.78.62,3.04,2.04,5.92,3.09,8.87v407.28Z"/>
    </g>
  </g>
</svg>