<?xml version="1.0" encoding="UTF-8"?>
<?xml-stylesheet href="/assets/css/style.css" type="text/css"?>
<svg id="Calque_2" data-name="Calque 2" xmlns="http://www.w3.org/2000/svg" viewBox="0 0 708.66 708.66">
  <g id="Calque_1-2" data-name="Calque 1">
    <path class="cls-1" d="M323.96,595.54c.48-6.18,1.04-10.09,1.05-13.99.06-44.8-.12-89.59.19-134.39.06-8.06-3.72-12.54-8.55-18.67-15.29-19.4-29.28-39.96-41.96-61.14-4.48-7.48-7.24-9.74-16.26-9.63-18.89.23-38.2-.48-56.64-4.21-34.97-7.09-54.97-40.84-44.59-74.91,5.05-16.58,13.17-32.44,21.57-47.72,4.2-7.65,4.06-12.45-.38-19.66-6.74-10.95-12.61-22.64-17.25-34.63-18.58-47.9,5.82-86.61,57.48-90.81,16.55-1.35,33.3-.21,47.31-.21,13.36-21.03,24.03-41.59,38.22-59.36,27.85-34.89,72.31-34.9,100.24-.21,12.01,14.92,21.36,32.25,30.03,49.43,4.1,8.13,7.92,9.71,16.52,9.73,18.92.04,38.17.33,56.67,3.77,32.37,6.01,53.83,39.96,44.6,71.48-6.27,21.43-16.89,41.62-25.42,62.02,7.71,16.93,17.39,34.43,23.78,53.04,13.14,38.27-10.21,75.08-50.59,80.38-20.12,2.64-40.57,2.81-61.17,4.12-6.33,11.98-12.77,25.23-20.22,37.89-4.42,7.51-9.07,16.16-16.01,20.72-19.82,13.02-19.62,31.57-19.12,51.77.89,36,.25,72.04.25,108.06v14.75c1.07.38,2.15.76,3.22,1.13,2.49-4,4.99-7.98,7.45-11.99,34.97-56.99,79.44-103.36,144.4-126.4,39.87-14.14,80.72-16.34,122.11-7.83,31.34,6.44,50.26,29.96,47.53,61.79-6.97,81.02-49.52,137.29-123.62,170.27-41.65,18.53-85.88,27.04-131.25,27.67-65.97.93-131.98,1.44-197.92-.1-64.65-1.51-126.31-15.7-179.19-55.37C29.15,616.86,4.91,568.41.24,510.27c-2.61-32.47,16.03-56.34,48.51-62.29,97.61-17.87,174.7,17.47,235.8,91.95,13.73,16.74,25.15,35.34,39.41,55.61ZM399.55,221.26c0-24.79-20.27-45.1-45.08-45.14-24.8-.05-45.2,20.21-45.27,44.95-.07,24.78,20.07,44.83,45.08,44.87,25.1.04,45.26-19.86,45.27-44.68Z"/>
  </g>
</svg>