<svg xmlns="http://www.w3.org/2000/svg" xmlns:xlink="http://www.w3.org/1999/xlink" viewBox="0 0 278.98 186.15" xmlns:v="https://vecta.io/nano"><defs><clipPath id="A"><path d="M112.23 0h115v112.78h-115z" stroke-width="0" fill="none"/></clipPath><path id="B" d="M90.55 159.52c-4.25 18.5 8.75 26.63 22.25 26.63 18.85 0 32.6-12.37 36.48-31.13.37-2.23.63-4.23.37-5.35s-1.37-1.5-2.37-.25c-5.13 6.48-14.25 11.1-23.48 12.35 10.35-3.37 17.1-13.98 18.48-24.48.87-8.13-3.5-13.63-13.13-13.63-19.35 0-34.73 18.87-38.6 35.85h0zm23.63-17.6c7.5 0 13.73 3.87 13.73 8.63s-6.23 8.48-13.73 8.48-13.75-3.75-13.75-8.48 6.13-8.63 13.75-8.63h0z"/></defs><g clip-path="url(#A)"><path d="M178.49 12.23c-1.86-3.94-4.56-7.7-8.43-9.71-4.85-2.52-10.7-1.91-16.05-.76-2.86.61-5.75 1.4-8.19 3s-4.42 4.17-4.65 7.08c-.15 1.82.39 3.62.96 5.35 1.76 5.36 3.97 10.58 6.59 15.57-7.32-4.21-15.68-8.58-23.81-6.32-6.18 1.71-11.01 7.47-11.64 13.84s3 12.96 8.72 15.84c4.85 2.44 10.56 2.26 15.98 2.02L118.7 70.75c-1.66 1.08-3.36 2.21-4.44 3.87-2.01 3.07-1.4 7.09-.71 10.69 1.25 6.58 2.84 13.74 8.05 17.95 6.2 5.01 15.63 3.91 22.42-.25s11.65-10.77 16.66-16.97c.65-.8 1.33-1.61 2.27-2.02 2.88-1.23 5.57 1.98 7.17 4.68 3.27 5.52 6.97 10.79 11.06 15.73 1.8 2.17 3.71 4.32 6.17 5.71 5.59 3.16 12.61 1.7 18.66-.47 3.04-1.09 6.06-2.36 8.57-4.4 5.78-4.69 7.9-12.98 6.32-20.25s-6.38-13.54-12.21-18.18c-2.27-1.81-4.8-3.51-6.11-6.09 6.48-2.74 14.66-1.9 19.76-6.76 3.19-3.04 4.33-7.66 4.66-12.06.54-7.15-1.2-15.25-7.19-19.2-5.72-3.77-13.42-2.51-19.71.22-2.82 1.22-14.45 9.32-17.18 7.73-1.58-.92-1.03-6.9-1.32-8.6-.6-3.4-1.65-6.71-3.12-9.83h0z" fill="#222"/></g><path d="M161.03,46.92c-2.57,2.33-4.13,5.56-4.36,9.02-.21,3.42.98,6.9,3.23,9.47.67.76,1.43,1.45,2.3,1.96,1.39.81,3.01,1.13,4.59,1.43,2.6.5,5.37.98,7.83,0,1.9-.77,3.35-2.31,4.69-3.86,1.7-1.98,3.38-4.14,3.9-6.69.73-3.65-1.13-7.45-3.95-9.88-5.06-4.37-12.85-6.25-18.23-1.44h0Z" fill="#fff"/><g fill="#737373"><path d="M93.57,108.92c1,2.75,2.13,2.63,3.75.87,8.48-8.75,9.48-21.73.87-29.98-6-5.75-16.63-8.25-28-8.25-9.37,0-22.87,1.63-32.63,8.37-9.48,6.75-16.85,22.35-6.35,32.73,6.48,6.25,17.73,9.63,25.73,14.5,18.25,11.13,10.87,23.87-4.37,26.75-10,1.98-23.73,1.1-30.48-2.75-4.25-2.5-6.75-6.37-5.13-12.13.75-3.13-1-2.75-2.37-1.87-7.75,4.75-14.37,18.98-10.87,30.1,4.75,14.87,24.87,18.87,35.85,18.87,16,0,36-6.87,43.37-27.13,4.37-11.73,2.75-25.23-8.87-33.35-5.37-3.75-12-6.25-17.87-8.87-33.6-14.75-4.37-26.85,16.5-22.5,8.75,1.75,17.37,6,20.87,14.63h0Z"/><use xlink:href="#B"/><use xlink:href="#B" x="53.1"/><path d="M254.86 92.42c-2 0-2.75.87-3 2.75-1.63 13.75-5.75 24.63-10.5 34.75-1.87-3.87-5.37-6.25-10.6-6.25-19.75 0-34.5 25.87-34.37 44.23.13 12.37 6.25 18.25 13.63 18.25 6 0 11.25-3.63 15.63-8.87.87 5.25 4.25 8.87 9.6 8.87 14.25 0 29.25-17.75 32-31.13.5-2.23.63-4.23.37-5.35s-1.37-1.5-2.37-.25c-2.87 3.75-7.13 5.73-10.75 5.73-11.5 0-5.63-15.73-3-21.48 6.87-14.37 20.5-31.63 26.87-39 1.25-1.25.5-2.25-1.13-2.25h-22.38zm-32.98 49.5c8.37 0 15.1 3.87 15.1 8.63s-6.73 8.48-15.1 8.48-15.25-3.75-15.25-8.48 6.87-8.63 15.25-8.63h0z"/></g><g fill="#222"><path d="M90.81,106.16c1,2.75,2.13,2.63,3.75.87,8.48-8.75,9.48-21.73.87-29.98-6-5.75-16.63-8.25-28-8.25-9.37,0-22.87,1.63-32.63,8.37-9.48,6.75-16.85,22.35-6.35,32.73,6.48,6.25,17.73,9.63,25.73,14.5,18.25,11.13,10.87,23.87-4.37,26.75-10,1.98-23.73,1.1-30.48-2.75-4.25-2.5-6.75-6.37-5.13-12.13.75-3.13-1-2.75-2.37-1.87-7.75,4.75-14.37,18.98-10.87,30.1,4.75,14.87,24.87,18.87,35.85,18.87,16,0,36-6.87,43.37-27.13,4.37-11.73,2.75-25.23-8.87-33.35-5.37-3.75-12-6.25-17.87-8.87-33.6-14.75-4.37-26.85,16.5-22.5,8.75,1.75,17.37,6,20.87,14.63h0Z"/><use xlink:href="#B" x="-2.76" y="-2.76"/><use xlink:href="#B" x="50.34" y="-2.76"/><path d="M252.09 89.66c-2 0-2.75.87-3 2.75-1.63 13.75-5.75 24.63-10.5 34.75-1.87-3.87-5.37-6.25-10.6-6.25-19.75 0-34.5 25.87-34.37 44.23.13 12.37 6.25 18.25 13.63 18.25 6 0 11.25-3.63 15.63-8.87.87 5.25 4.25 8.87 9.6 8.87 14.25 0 29.25-17.75 32-31.13.5-2.23.63-4.23.37-5.35s-1.37-1.5-2.37-.25c-2.87 3.75-7.13 5.73-10.75 5.73-11.5 0-5.63-15.73-3-21.48 6.87-14.37 20.5-31.63 26.87-39 1.25-1.25.5-2.25-1.13-2.25h-22.38zm-32.97 49.5c8.37 0 15.1 3.87 15.1 8.63s-6.73 8.48-15.1 8.48-15.25-3.75-15.25-8.48 6.87-8.63 15.25-8.63h0z"/></g></svg>