<?xml version="1.0" encoding="UTF-8"?>
<?xml-stylesheet href="/assets/css/style.css" type="text/css"?>
<svg id="Calque_2" data-name="Calque 2" xmlns="http://www.w3.org/2000/svg" viewBox="0 0 708.66 708.66">
  <g id="Calque_1-2" data-name="Calque 1">
    <g>
      <path class="cls-1" d="M265.68,708.66H105.1c-3.02-1.01-5.97-2.37-9.07-2.99-54.06-10.8-93.82-55.81-95.1-110.65-1.22-52.11-1.26-104.3,0-156.41,1.42-59.19,46.98-109.48,105.74-111.66,81.07-3,162.32-2.21,243.47-1.02,35.2.52,60.26,26.8,62.03,58.82,1.96,35.65-19.17,62.71-56.01,68.88-38.6,6.47-77.48,11.25-116.26,16.63-23,3.19-35.66,17.01-32.72,36.12,2.79,18.15,19,27.23,41.25,23.96,36-5.29,72-10.69,108.13-14.98,73.08-8.69,120.13-64.54,115.79-137.89-.23-3.89,2.03-8.91,4.79-11.85,33.43-35.69,66.53-71.73,101-106.4,41.52-41.77,110.62-23.06,127.11,33.55.88,3.01,2.28,5.86,3.44,8.79v22.16c-8.26,15.15-13.99,32.57-25.2,45.07-72.93,81.27-146.98,161.53-220.8,241.99-42.65,46.49-94.73,76.92-156.46,90.39-13.41,2.93-27.01,5.02-40.52,7.5Z"/>
      <path class="cls-1" d="M75.81,60.69c39.71,49.51,86.03,92.91,99.12,158.84-19.23.74-35.6-3.98-50.96-12.56-36.05-20.13-62.05-50.54-83.93-84.6-12.68-19.74-24.04-40.4-34.88-61.22C-3.51,44.53,1.7,29.4,18.47,22.27c67.91-28.86,135.92-31.3,203.02,2.33,45.85,22.98,65.15,67.69,55.87,117.96-2.62,14.2,3.89,30.1,6.54,47.32,14.92-10.49,27.33-19.01,39.45-27.93,1.87-1.38,3.01-4.49,3.44-6.98,9.32-54.14,34.43-80.69,86.86-91.11,43.71-8.68,86.28-3.35,127.71,11.96,18.33,6.78,24.41,22.75,14.95,40.23-26.42,48.84-64.45,86.72-113.99,111.35-31.92,15.88-62.87,8.21-91.02-14.86-24.25,15.99-44.8,35.27-57.78,61.57-5.8,11.75-13.79,19.43-27.38,19.85-17.16.53-26.59-7.76-29.22-26.35-3.42-24.14-4.91-48.67-9.95-72.45-12.83-60.49-81.97-125.04-142.71-134.94-2.03-.33-4.2.2-8.46.46Z"/>
    </g>
  </g>
</svg>