<?xml version="1.0" encoding="UTF-8"?>
<?xml-stylesheet href="/assets/css/style.css" type="text/css"?>
<svg id="Calque_2" data-name="Calque 2" xmlns="http://www.w3.org/2000/svg" viewBox="0 0 524.41 708.66">
  <g id="Calque_1-2" data-name="Calque 1">
    <g>
      <path class="cls-1" d="M281.44,0c6.5,1.75,12.96,3.68,19.5,5.23,82.96,19.66,139.56,94.77,135.89,180.41-3.61,84.28-67.07,154.28-150.76,166.32-92.64,13.33-182.34-52.82-195.81-144.38C75.58,107.81,138.23,18.9,234.29,3.05c3.02-.5,5.87-2.01,8.8-3.05,12.78,0,25.56,0,38.35,0Z"/>
      <path class="cls-1" d="M262.3,708.64c-75.29,0-150.58.03-225.87-.01-26.75-.01-37.02-10.85-36.41-38.15,2.96-132.24,110.83-246.3,241.01-254.84,139.08-9.13,254.04,81.28,279.74,220.4,2.42,13.08,3.33,26.57,3.62,39.89.46,21.2-11.55,32.64-33.49,32.67-76.2.1-152.41.04-228.61.04Z"/>
    </g>
  </g>
</svg>