<?xml version="1.0" encoding="UTF-8"?>
<svg id="Calque_1" data-name="Calque 1" xmlns="http://www.w3.org/2000/svg" viewBox="0 0 379.95 370.74">
  <defs>
    <style>
      .cls-1 {
        fill: #222;
        stroke: #e4ff88;
        stroke-miterlimit: 10;
        stroke-width: 5px;
      }
    </style>
  </defs>
  <path class="cls-1" d="M217.83,40.23c-6.13-12.97-14.96-25.32-27.67-31.93C174.23,0,155.01,1.98,137.45,5.77c-9.39,2.03-18.86,4.59-26.89,9.87-8.03,5.27-14.5,13.71-15.25,23.29-.47,5.99,1.27,11.91,3.14,17.62,5.79,17.63,13.04,34.78,21.65,51.21-24.03-13.86-51.47-28.21-78.2-20.79-20.27,5.62-36.14,24.55-38.2,45.51-2.06,20.98,9.84,42.63,28.64,52.1,15.93,8.04,34.67,7.44,52.49,6.65-21.09,13.82-42.2,27.65-63.29,41.48-5.43,3.55-11.02,7.28-14.57,12.72-6.58,10.1-4.57,23.31-2.32,35.15,4.13,21.67,9.31,45.19,26.45,59.04,20.36,16.45,51.3,12.85,73.6-.85,22.31-13.7,38.25-35.42,54.7-55.81,2.11-2.61,4.36-5.31,7.45-6.63,9.47-4.04,18.29,6.52,23.53,15.38,10.75,18.16,22.91,35.48,36.33,51.75,5.9,7.14,12.2,14.22,20.26,18.77,18.36,10.39,41.4,5.59,61.25-1.56,9.97-3.59,19.9-7.79,28.13-14.47,18.99-15.42,25.94-42.67,20.76-66.6s-20.94-44.55-40.08-59.79c-7.45-5.94-15.76-11.52-20.07-20.04,21.3-9.02,48.15-6.24,64.88-22.23,10.48-10.01,14.23-25.2,15.31-39.67,1.77-23.52-3.95-50.17-23.62-63.15-18.8-12.39-44.06-8.25-64.71.72-9.26,4.02-47.46,30.65-56.4,25.41-5.18-3.03-3.37-22.69-4.34-28.27-1.95-11.17-5.4-22.1-10.24-32.36Z"/>
</svg>